<?xml version="1.0" encoding="utf-8"?>
<!-- Generator: Adobe Illustrator 22.1.0, SVG Export Plug-In . SVG Version: 6.00 Build 0)  -->
<svg version="1.1" xmlns="http://www.w3.org/2000/svg" xmlns:xlink="http://www.w3.org/1999/xlink" x="0px" y="0px"
	 viewBox="0 0 940 150" style="enable-background:new 0 0 940 150;" xml:space="preserve">
<style type="text/css">
	.st0{fill:#56E5E5;}
	.st1{fill:#E6E6E6;}
	.st2{fill:#FCC600;}
	.st3{clip-path:url(#SVGID_2_);fill:#FCB415;}
	.st4{fill:#FCB415;}
	.st5{fill:#FFFFFF;}
	.st6{fill:none;stroke:#171628;stroke-width:1.6525;stroke-linecap:round;stroke-miterlimit:10;}
	.st7{fill:none;}
	.st8{fill:#171628;}
	.st9{fill:#494949;}
	.st10{fill:#353535;}
	.st11{fill:none;stroke:#171628;stroke-width:1.497;stroke-linecap:round;stroke-linejoin:round;stroke-miterlimit:10;}
	.st12{fill:none;stroke:#171628;stroke-width:1.6525;stroke-linecap:round;stroke-linejoin:round;stroke-miterlimit:10;}
	.st13{fill:#00BED5;}
	.st14{clip-path:url(#SVGID_4_);fill:#FFFFFF;}
	.st15{fill:#353535;stroke:#171628;stroke-width:2.185;stroke-linecap:round;stroke-linejoin:round;stroke-miterlimit:10;}
	.st16{fill:#353535;stroke:#171628;stroke-width:1.8777;stroke-linecap:round;stroke-linejoin:round;stroke-miterlimit:10;}
	.st17{fill:none;stroke:#171628;stroke-width:6;stroke-linecap:round;stroke-linejoin:round;stroke-miterlimit:10;}
	.st18{fill:none;stroke:#171628;stroke-width:6;stroke-linecap:round;stroke-miterlimit:10;}
	.st19{fill:none;stroke:#171628;stroke-width:6;stroke-miterlimit:10;}
	.st20{fill:none;stroke:#171628;stroke-width:3.5869;stroke-linecap:round;stroke-linejoin:round;stroke-miterlimit:10;}
	.st21{fill:none;stroke:#171628;stroke-width:3.5869;stroke-linecap:round;stroke-miterlimit:10;}
	.st22{opacity:0.7;}
</style>
<g id="BG">
</g>
<g id="Offset_color">
</g>
<g id="Content">
	<g>
		<path d="M117.6,96.9c-4.4-4.3-6.6-10.5-6.6-18.5V47.7h13v30.2c0,9.8,4,14.7,12,14.7c3.9,0,6.9-1.2,8.9-3.6
			c2.1-2.4,3.1-6.1,3.1-11.1V47.7h13v30.6c0,8-2.2,14.2-6.6,18.5c-4.4,4.3-10.5,6.5-18.4,6.5S122,101.2,117.6,96.9z"/>
		<path d="M216,92.7v10h-42v-55h41v10h-29v12h25v10h-25v13H216z"/>
		<path d="M278,47.7l-23.8,55h-12.6l-23.7-55h13.8L248.4,87l17-39.3H278z"/>
		<path d="M292.9,99.9c-4.6-2.4-8.1-5.8-10.7-10.1c-2.6-4.3-3.9-9.1-3.9-14.5c0-5.4,1.3-10.2,3.9-14.5c2.6-4.3,6.1-7.7,10.7-10.1
			c4.6-2.4,9.7-3.7,15.4-3.7c5.7,0,10.8,1.2,15.3,3.7c4.5,2.5,8.1,5.8,10.7,10.1c2.6,4.3,3.9,9.1,3.9,14.5c0,5.4-1.3,10.2-3.9,14.5
			c-2.6,4.3-6.2,7.7-10.7,10.1c-4.5,2.5-9.6,3.7-15.3,3.7C302.6,103.6,297.4,102.4,292.9,99.9z M317,90.6c2.6-1.5,4.7-3.6,6.1-6.2
			c1.5-2.7,2.2-5.7,2.2-9.1c0-3.4-0.7-6.4-2.2-9.1c-1.5-2.7-3.5-4.7-6.1-6.2c-2.6-1.5-5.5-2.2-8.8-2.2c-3.2,0-6.1,0.7-8.8,2.2
			c-2.6,1.5-4.7,3.6-6.1,6.2c-1.5,2.7-2.2,5.7-2.2,9.1c0,3.4,0.7,6.4,2.2,9.1c1.5,2.7,3.5,4.7,6.1,6.2c2.6,1.5,5.5,2.2,8.8,2.2
			C311.5,92.8,314.4,92.1,317,90.6z"/>
		<path class="st22" d="M356,52.7v22h28v5h-28v23h-6v-55h38v5H356z"/>
		<path class="st22" d="M408.1,99.5c-4.4-2.4-7.8-5.7-10.3-10c-2.5-4.2-3.7-9-3.7-14.2c0-5.3,1.2-10,3.7-14.2
			c2.5-4.2,5.9-7.5,10.3-10c4.4-2.4,9.3-3.6,14.7-3.6c5.4,0,10.3,1.2,14.7,3.6c4.4,2.4,7.8,5.7,10.3,10c2.5,4.2,3.8,9,3.8,14.3
			c0,5.3-1.3,10-3.8,14.3c-2.5,4.2-5.9,7.6-10.3,10c-4.4,2.4-9.2,3.6-14.7,3.6C417.4,103.1,412.5,101.9,408.1,99.5z M434.6,95
			c3.5-2,6.2-4.7,8.2-8.1c2-3.5,3-7.3,3-11.6c0-4.3-1-8.1-3-11.6c-2-3.5-4.7-6.2-8.2-8.1c-3.5-2-7.4-2.9-11.7-2.9
			c-4.3,0-8.2,1-11.8,2.9c-3.5,2-6.3,4.7-8.3,8.1c-2,3.5-3,7.3-3,11.6c0,4.3,1,8.1,3,11.6c2,3.5,4.8,6.2,8.3,8.1
			c3.5,2,7.4,2.9,11.8,2.9C427.2,98,431.1,97,434.6,95z"/>
		<path class="st22" d="M469.9,96.8c-4-4.1-5.9-10-5.9-17.7V47.7h6v31.1c0,6.4,1.5,11.1,4.4,14.2c2.9,3.1,7.1,4.7,12.6,4.7
			c5.5,0,9.8-1.6,12.7-4.7c2.9-3.1,4.4-7.9,4.4-14.2V47.7h5v31.3c0,7.8-2,13.7-5.9,17.7c-3.9,4.1-9.5,6.1-16.6,6.1
			C479.4,102.9,473.9,100.9,469.9,96.8z"/>
		<path class="st22" d="M572,47.7v55h-3.5L532,58.1v44.6h-6v-55h2.9L566,92.4V47.7H572z"/>
		<path class="st22" d="M590,47.7h22.4c5.8,0,10.9,1.2,15.4,3.5c4.5,2.3,7.9,5.6,10.4,9.7c2.5,4.2,3.7,8.9,3.7,14.3
			c0,5.3-1.2,10.1-3.7,14.3c-2.5,4.2-5.9,7.4-10.4,9.7c-4.5,2.3-9.6,3.5-15.4,3.5H590V47.7z M612.3,97.7c4.8,0,9-1,12.7-2.9
			c3.6-1.9,6.4-4.6,8.4-7.9c2-3.4,3-7.3,3-11.7c0-4.4-1-8.3-3-11.7c-2-3.4-4.8-6-8.4-7.9c-3.6-1.9-7.8-2.9-12.7-2.9H596v45H612.3z"
			/>
		<path class="st22" d="M688.5,87.7h-31.3l-6.7,15h-5.6l25.1-55h5.7l25.1,55h-5.7L688.5,87.7z M686,83.7l-13.1-29.4l-13.1,29.4H686z
			"/>
		<path class="st22" d="M718,52.7h-19v-5h44v5h-19v50h-6V52.7z"/>
		<path class="st22" d="M752,47.7h6v55h-6V47.7z"/>
		<path class="st22" d="M784.8,99.5c-4.4-2.4-7.8-5.7-10.3-10c-2.5-4.2-3.7-9-3.7-14.2c0-5.3,1.2-10,3.7-14.2
			c2.5-4.2,5.9-7.5,10.3-10c4.4-2.4,9.3-3.6,14.7-3.6c5.4,0,10.3,1.2,14.7,3.6c4.4,2.4,7.8,5.7,10.3,10c2.5,4.2,3.8,9,3.8,14.3
			c0,5.3-1.3,10-3.8,14.3c-2.5,4.2-5.9,7.6-10.3,10c-4.4,2.4-9.2,3.6-14.7,3.6C794.1,103.1,789.2,101.9,784.8,99.5z M811.2,95
			c3.5-2,6.2-4.7,8.2-8.1c2-3.5,3-7.3,3-11.6c0-4.3-1-8.1-3-11.6c-2-3.5-4.7-6.2-8.2-8.1c-3.5-2-7.4-2.9-11.7-2.9s-8.2,1-11.8,2.9
			c-3.5,2-6.3,4.7-8.3,8.1c-2,3.5-3,7.3-3,11.6c0,4.3,1,8.1,3,11.6c2,3.5,4.8,6.2,8.3,8.1c3.5,2,7.4,2.9,11.8,2.9S807.7,97,811.2,95
			z"/>
		<path class="st22" d="M887,47.7v55h-3.5L847,58.1v44.6h-6v-55h2.9L881,92.4V47.7H887z"/>
		<g>
			<path d="M100,96.6l-14-17c0,0,0-32.1,0-32h14V96.6z"/>
			<path d="M49,102.6h14v-32l-14-16C49,61.8,49,102.3,49,102.6z"/>
			<polygon class="st2" points="100,96.2 59,47.6 49,47.6 49,54.6 90,102.6 100,102.6 			"/>
		</g>
		<rect x="838" y="111.6" class="st2" width="52" height="8"/>
	</g>
</g>
<g id="Grid">
</g>
</svg>
